<?xml version="1.0" standalone="no"?>
<!DOCTYPE svg PUBLIC "-//W3C//DTD SVG 20010904//EN"
 "http://www.w3.org/TR/2001/REC-SVG-20010904/DTD/svg10.dtd">
<svg version="1.0" xmlns="http://www.w3.org/2000/svg"
 width="992.000000pt" height="992.000000pt" viewBox="0 0 992.000000 992.000000"
 preserveAspectRatio="xMidYMid meet">
<metadata>
Created by potrace 1.14, written by Peter Selinger 2001-2017
</metadata>
<g transform="translate(0.000000,992.000000) scale(0.100000,-0.100000)"
fill="#000000" stroke="none">
<path d="M4793 9747 c-13 -5 -24 -15 -24 -21 -1 -6 -2 -51 -4 -101 -3 -94 -11
-189 -21 -240 -11 -59 -35 -160 -43 -180 -19 -49 -54 -152 -58 -172 -3 -13 -9
-23 -14 -23 -5 0 -9 -6 -9 -12 0 -13 -51 -115 -86 -175 -46 -77 -90 -148 -104
-168 -8 -12 -24 -35 -35 -51 -11 -16 -22 -31 -25 -34 -3 -3 -16 -21 -30 -40
-13 -19 -28 -39 -32 -45 -5 -5 -42 -53 -84 -105 -41 -52 -91 -112 -110 -133
-19 -21 -34 -42 -34 -47 0 -5 -3 -10 -7 -12 -7 -3 -81 -86 -144 -162 -13 -16
-34 -39 -46 -52 -13 -13 -23 -26 -23 -30 0 -4 -8 -14 -18 -23 -10 -9 -60 -68
-110 -131 -51 -63 -97 -121 -104 -129 -36 -43 -85 -112 -142 -198 -36 -54 -69
-102 -73 -108 -5 -5 -14 -21 -21 -35 -7 -14 -20 -38 -30 -55 -53 -87 -124
-240 -161 -345 -13 -36 -26 -72 -29 -80 -3 -8 -6 -19 -7 -25 -2 -5 -9 -30 -16
-55 -15 -52 -13 -45 -22 -90 -4 -19 -9 -46 -12 -60 -19 -92 -19 -93 -30 -245
-3 -38 -6 -74 -6 -80 -1 -27 12 -223 16 -245 2 -14 7 -50 10 -80 4 -30 10 -59
13 -65 4 -5 7 -12 7 -15 8 -60 56 -224 81 -272 8 -15 12 -28 10 -28 -8 0 95
-202 113 -224 9 -10 16 -21 15 -25 -1 -6 56 -96 83 -131 86 -113 236 -272 310
-327 21 -15 45 -36 54 -45 9 -10 19 -18 23 -18 7 0 67 -40 76 -51 13 -15 213
-122 228 -122 36 0 43 4 51 25 6 16 2 38 -12 73 -91 229 -120 371 -121 605 -1
148 4 205 24 295 5 22 11 54 14 72 13 69 130 361 188 467 6 11 27 51 48 90 44
86 85 157 118 211 61 97 117 180 124 183 5 2 8 10 8 17 0 7 3 15 8 17 4 2 30
32 56 68 117 154 130 164 133 99 2 -43 3 -99 2 -119 0 -26 10 -163 15 -205 3
-22 9 -67 12 -99 3 -33 8 -69 10 -80 2 -12 7 -37 10 -56 2 -19 7 -46 9 -60 3
-14 7 -41 10 -60 3 -19 10 -48 15 -65 5 -16 11 -43 14 -60 2 -16 5 -30 6 -30
1 0 3 -9 5 -20 16 -86 127 -432 154 -478 25 -44 51 -44 191 2 140 47 334 139
450 216 90 60 110 69 114 52 2 -6 9 -29 15 -49 7 -20 14 -45 16 -55 40 -182
47 -236 45 -388 -2 -198 -27 -331 -96 -513 -24 -61 -34 -101 -30 -117 9 -36
45 -41 97 -14 24 13 47 22 52 21 4 -1 7 1 7 6 0 4 17 16 38 27 20 11 39 23 42
26 3 3 16 12 29 19 14 7 30 17 35 21 6 5 45 35 86 66 81 62 152 125 209 187
20 21 45 48 56 60 32 34 155 193 155 202 0 4 6 15 14 23 32 36 126 217 168
320 53 134 99 292 113 396 3 22 7 49 10 60 22 108 23 431 0 564 -4 24 -8 58
-10 75 -1 17 -5 38 -8 46 -3 8 -8 29 -10 45 -3 17 -12 57 -22 90 -9 33 -18 67
-20 75 -2 8 -15 49 -30 90 -14 41 -29 86 -32 100 -3 14 -11 31 -16 39 -6 7
-12 20 -13 28 -4 26 -126 277 -170 348 -13 22 -32 55 -41 73 -9 17 -20 32 -25
32 -4 0 -8 5 -8 12 0 24 -50 77 -70 73 -33 -6 -37 -11 -82 -103 -53 -105 -68
-130 -90 -156 -10 -11 -18 -23 -18 -27 0 -3 -14 -24 -30 -45 -17 -22 -40 -52
-53 -69 -39 -53 -210 -220 -274 -268 -97 -74 -103 -67 -58 70 97 293 129 609
90 883 -2 14 -6 47 -10 75 -12 87 -79 338 -97 360 -4 5 -8 17 -8 27 0 10 -4
26 -9 36 -5 9 -16 33 -24 52 -58 133 -143 296 -198 378 -16 23 -29 45 -29 47
0 3 -28 43 -62 91 -35 47 -67 93 -73 102 -5 9 -15 21 -21 27 -6 5 -30 35 -55
65 -88 108 -223 248 -339 351 -78 69 -98 80 -127 66z"/>
<path d="M2122 5157 c-12 -6 -39 -35 -59 -66 -20 -31 -39 -58 -43 -61 -5 -4
-116 -174 -155 -238 -5 -9 -28 -45 -51 -81 -22 -37 -54 -91 -71 -121 -16 -30
-40 -73 -53 -95 -13 -22 -30 -53 -38 -70 -8 -16 -24 -42 -34 -57 -11 -16 -16
-28 -13 -28 3 0 -2 -12 -12 -27 -11 -16 -27 -47 -38 -70 -10 -24 -22 -43 -27
-43 -4 0 -7 -3 -6 -7 2 -5 -19 -52 -45 -105 -26 -54 -47 -100 -47 -103 0 -2
-11 -28 -24 -57 -69 -148 -66 -165 34 -216 25 -12 52 -27 60 -32 27 -17 124
-72 175 -100 53 -28 65 -35 298 -166 81 -46 152 -84 157 -84 6 0 10 -4 10 -9
0 -5 10 -13 21 -16 12 -4 48 -22 79 -41 106 -62 185 -105 203 -111 9 -3 17 -9
17 -14 0 -5 5 -9 11 -9 6 0 24 -9 40 -21 16 -11 29 -17 29 -13 0 4 8 1 18 -7
9 -8 31 -21 47 -29 17 -8 48 -26 70 -40 22 -14 54 -32 70 -40 17 -8 41 -22 55
-31 14 -9 57 -33 95 -54 192 -104 385 -217 385 -225 0 -10 -40 -50 -50 -50 -4
0 -123 -65 -264 -145 -142 -80 -259 -145 -262 -145 -2 0 -23 -12 -47 -27 -23
-15 -67 -40 -97 -55 -30 -16 -77 -42 -105 -59 -27 -16 -62 -35 -77 -40 -16 -6
-28 -14 -28 -18 0 -3 -14 -12 -30 -19 -17 -8 -68 -35 -113 -61 -46 -27 -110
-63 -143 -81 -202 -113 -451 -252 -464 -260 -8 -6 -22 -13 -30 -17 -8 -4 -48
-26 -88 -50 -40 -24 -79 -44 -85 -46 -7 -1 -19 -17 -29 -36 -15 -33 -15 -36 9
-95 14 -34 67 -148 119 -254 51 -106 93 -195 93 -198 0 -2 9 -16 21 -31 11
-14 20 -29 20 -34 0 -4 23 -46 50 -94 27 -48 50 -90 50 -95 0 -5 3 -10 8 -12
4 -2 18 -23 31 -48 28 -52 72 -123 159 -256 34 -53 62 -100 62 -105 0 -5 5 -9
10 -9 6 0 10 -5 10 -11 0 -6 6 -16 13 -23 6 -8 30 -39 52 -70 33 -46 45 -56
69 -56 23 0 105 39 198 95 18 11 35 20 153 85 93 51 174 96 195 110 8 5 42 24
75 41 33 17 62 34 65 38 5 5 42 26 170 93 25 12 47 25 50 28 3 3 129 75 280
160 151 84 291 162 310 173 19 11 55 31 80 45 25 14 151 84 280 157 289 162
319 179 400 223 36 20 67 38 70 41 3 3 30 19 60 35 30 16 163 90 295 164 295
166 287 161 360 202 33 18 77 44 98 57 20 13 37 20 37 16 0 -5 4 -3 8 2 4 6
16 15 27 21 39 21 131 72 193 108 35 20 68 36 72 36 5 0 10 3 12 8 2 4 33 23
70 42 37 19 68 38 68 43 0 4 7 7 15 7 8 0 31 11 51 25 44 30 50 31 63 7 7 -14
2 -26 -27 -58 -20 -21 -71 -78 -112 -124 -41 -47 -79 -90 -85 -96 -5 -6 -39
-44 -75 -85 -36 -40 -74 -83 -85 -95 -11 -12 -42 -47 -70 -79 -27 -31 -62 -71
-77 -88 -42 -46 -33 -85 25 -112 18 -8 52 -26 77 -41 25 -15 70 -40 100 -57
30 -17 78 -43 105 -59 28 -15 68 -37 90 -49 22 -12 48 -29 59 -38 10 -9 21
-15 25 -14 3 0 32 -14 64 -33 32 -19 62 -34 66 -34 5 0 14 -7 21 -15 7 -9 15
-13 18 -11 3 3 17 -3 32 -14 16 -11 33 -20 38 -20 6 0 12 -3 14 -8 3 -7 45
-31 141 -80 26 -14 47 -28 47 -33 0 -5 7 -9 16 -9 8 0 32 -11 52 -25 20 -14
42 -25 48 -25 7 0 14 -4 16 -9 2 -5 10 -11 18 -13 8 -2 17 -6 20 -9 3 -3 37
-23 75 -44 39 -21 116 -64 172 -96 56 -33 107 -59 112 -59 6 0 11 -3 11 -7 0
-5 10 -13 23 -19 12 -6 45 -23 72 -38 49 -26 78 -43 180 -101 28 -15 75 -41
105 -58 30 -16 69 -38 85 -47 17 -10 47 -27 68 -39 20 -12 54 -31 75 -42 20
-12 60 -34 87 -49 28 -15 68 -38 90 -50 127 -74 146 -82 177 -76 34 7 35 7
115 126 32 47 61 86 65 88 5 2 8 8 8 14 0 5 13 28 28 51 16 23 31 50 35 59 4
10 11 18 17 18 5 0 10 4 10 9 0 6 33 65 74 133 40 68 81 139 91 158 10 19 21
37 24 40 3 3 15 23 26 45 11 22 37 71 58 110 22 38 40 75 41 80 1 6 8 21 16
35 22 39 78 155 127 264 47 105 55 148 32 171 -8 8 -90 57 -184 110 -93 52
-177 100 -185 105 -8 5 -31 17 -50 27 -19 9 -37 20 -40 23 -3 3 -16 11 -30 17
-14 7 -47 25 -75 41 -27 16 -72 42 -100 57 -27 15 -63 35 -80 45 -16 10 -51
29 -77 44 -27 14 -69 38 -95 52 -27 15 -61 34 -78 44 -16 10 -51 29 -77 44
-111 61 -146 80 -201 112 -32 19 -62 34 -68 34 -5 0 -9 3 -9 8 0 4 -15 14 -32
21 -18 8 -70 36 -116 63 -46 26 -88 48 -93 48 -5 0 -9 5 -9 10 0 6 -5 10 -10
10 -25 0 -298 163 -296 177 2 14 22 28 116 80 30 16 71 39 90 50 19 11 87 48
150 84 63 35 117 66 120 69 3 3 29 16 57 30 29 14 53 28 53 33 0 4 4 7 10 7 5
0 46 21 92 48 46 26 101 56 123 67 22 11 42 23 45 26 3 3 35 21 71 41 92 50
113 62 119 68 3 3 28 17 55 31 59 31 116 62 243 135 52 30 95 54 97 54 2 0 30
15 62 34 32 18 78 45 103 58 294 165 299 168 307 193 13 37 10 44 -68 210 -18
39 -33 72 -33 75 -3 15 -122 246 -131 252 -5 4 -6 8 -1 8 5 0 4 6 -1 13 -6 6
-21 32 -35 57 -51 93 -110 196 -134 235 -13 22 -27 47 -31 55 -10 23 -180 288
-219 343 -19 26 -34 52 -34 57 0 6 -4 10 -8 10 -5 0 -15 12 -23 27 -19 35 -66
55 -94 40 -11 -6 -22 -12 -25 -12 -3 0 -48 -25 -100 -54 -145 -82 -150 -85
-235 -131 -44 -23 -87 -49 -96 -56 -8 -8 -19 -14 -22 -14 -4 0 -50 -25 -102
-55 -53 -30 -100 -55 -105 -55 -4 0 -10 -3 -12 -8 -1 -4 -25 -19 -53 -33 -112
-59 -286 -157 -347 -196 -21 -12 -44 -23 -52 -23 -8 0 -16 -4 -18 -8 -1 -4
-50 -34 -108 -66 -58 -33 -122 -68 -142 -80 -20 -12 -81 -46 -135 -76 -54 -30
-116 -65 -138 -77 -22 -13 -56 -31 -75 -41 -19 -9 -37 -20 -40 -23 -3 -3 -42
-26 -86 -50 -45 -24 -132 -72 -193 -106 -62 -35 -116 -63 -121 -63 -6 0 -10
-3 -10 -7 0 -5 -26 -21 -58 -38 -31 -16 -59 -32 -62 -35 -3 -3 -27 -17 -55
-31 -27 -14 -73 -40 -102 -57 -28 -17 -54 -28 -57 -25 -3 4 -6 1 -6 -5 0 -6
-10 -14 -22 -18 -13 -3 -30 -12 -38 -19 -8 -7 -44 -27 -80 -46 -36 -18 -67
-36 -70 -39 -3 -3 -21 -13 -40 -24 -30 -16 -119 -64 -184 -100 -12 -7 -39 -23
-61 -37 -22 -13 -42 -24 -45 -24 -3 0 -36 -19 -75 -41 -96 -57 -172 -99 -225
-126 -25 -13 -51 -28 -58 -35 -6 -6 -22 -15 -35 -19 -12 -4 -24 -10 -27 -13
-5 -6 -51 -32 -146 -82 -24 -13 -49 -19 -59 -15 -16 6 -16 8 1 34 18 28 24 35
96 113 24 25 66 71 93 103 28 32 59 68 70 80 11 12 49 55 85 96 36 40 72 80
80 89 64 66 130 152 130 169 0 27 -53 62 -270 178 -19 11 -37 21 -40 24 -7 7
-97 57 -140 78 -19 9 -37 19 -40 22 -6 6 -30 20 -118 67 -37 19 -71 39 -77 43
-5 4 -37 22 -70 40 -33 18 -127 71 -208 117 -82 45 -153 83 -158 83 -5 0 -9 5
-9 10 0 6 -5 10 -11 10 -6 0 -49 23 -96 50 -47 28 -88 50 -93 50 -4 0 -13 7
-20 15 -6 8 -15 13 -18 12 -4 -1 -35 15 -70 36 -35 20 -65 37 -67 37 -3 0 -34
18 -70 40 -36 22 -68 40 -71 40 -3 0 -43 23 -90 50 -47 28 -86 50 -88 50 -2 0
-57 30 -123 68 -65 37 -131 74 -148 82 -16 8 -32 17 -35 21 -3 3 -41 25 -85
49 -44 24 -103 56 -131 71 -75 42 -96 48 -122 36z"/>
</g>
</svg>
